<svg xmlns="http://www.w3.org/2000/svg" version="1.1" xmlns:xlink="http://www.w3.org/1999/xlink" width="512" height="512"><svg width="512" height="512" viewBox="0 0 512 512" version="1.1" id="SvgjsSvg1374" xmlns="http://www.w3.org/2000/svg" xmlns:svg="http://www.w3.org/2000/svg">
  <defs id="SvgjsDefs1373"></defs>
  <g id="SvgjsG1372">
    <circle style="display:none;fill:#ffffff;stroke-width:10;stroke-linejoin:round;stroke-miterlimit:67.2" id="SvgjsCircle1371" cx="256.03369" cy="256.03369" r="256.03369"></circle>
    <g id="SvgjsG1370" transform="matrix(0.98336641,0,0,0.98336641,-10.195518,31.001883)" style="display:none">
      <path style="font-weight:600;font-size:96px;font-family:FreeSans;-inkscape-font-specification:'FreeSans Semi-Bold';text-align:center;text-anchor:middle;white-space:pre;fill:#333333;stroke-width:34.3009;stroke-linejoin:round;stroke-miterlimit:67.2" d="m 192.79645,54.922836 c 34.90464,0 62.89421,11.854407 83.96871,35.56322 21.0745,23.708834 31.61175,53.564374 31.61175,89.566644 0,16.24493 -2.41479,32.0508 -7.24436,47.41763 -17.44525,50.25136 -55.44013,79.02937 -108.3361,79.02937 -34.68511,0 -62.67468,-11.74464 -83.96871,-35.23393 -21.074499,-23.70881 -31.611749,-53.89364 -31.611749,-90.55449 0,-36.66085 10.53725,-66.73592 31.611749,-90.225224 21.29403,-23.708813 49.2836,-35.56322 83.96871,-35.56322 z m 66.1871,126.117734 c 0,-25.46502 -6.03697,-45.77118 -18.1109,-60.91849 -11.85441,-15.36682 -27.87981,-23.050234 -48.0762,-23.050234 -19.97687,0 -36.00227,7.683414 -48.0762,23.050234 -12.07393,15.14731 -18.1109,35.34371 -18.1109,60.5892 0,25.24549 6.03697,45.55165 18.1109,60.91848 12.07393,15.14729 27.98957,22.72094 47.74691,22.72094 11.41535,0 33.79111,-10.36696 41.69405,-14.53795 7.11754,-6.16083 24.07127,-27.48632 24.82234,-68.77218 z" id="SvgjsPath1369" aria-label="Q"></path>
      <path style="font-weight:bold;font-size:96px;font-family:FreeSans;-inkscape-font-specification:'FreeSans Semi-Bold';text-align:center;text-anchor:middle;white-space:pre;fill:#333333;stroke-width:28.3245;stroke-linejoin:round;stroke-miterlimit:67.2" d="M 409.25349,402.68506 H 372.54491 L 346.91711,247.96519 307.0133,402.68506 h -36.70858 c 0,0 -34.59469,-136.44681 -93.77347,-195.79504 14.70438,0 35.75501,0.31058 49.72702,0.46375 44.97148,51.01929 61.99287,145.57077 61.99287,145.57077 l 40.7876,-148.46581 h 40.24348 l 22.02486,148.73773 29.63878,-148.73773 h 43.23455 z" id="SvgjsPath1368" aria-label="W"></path>
    </g>
    <g id="SvgjsG1367" transform="matrix(0.98336641,0,0,0.98336641,-10.195518,31.001883)" style="display:inline">
      <path id="SvgjsPath1366" style="font-weight:600;font-size:96px;font-family:FreeSans;-inkscape-font-specification:'FreeSans Semi-Bold';text-align:center;text-anchor:middle;white-space:pre;fill:#333333;stroke-width:34.3009;stroke-linejoin:round;stroke-miterlimit:67.2" d="m 192.79695,54.923409 c -34.68511,0 -62.67494,11.853418 -83.96897,35.562231 -21.074495,23.4893 -31.611751,53.56453 -31.611751,90.22538 0,36.66085 10.537256,66.84628 31.611751,90.55509 21.29403,23.48929 49.28386,35.23451 83.96897,35.23451 15.09557,0 28.97766,-2.34444 41.51476,-6.86219 23.24969,52.78276 35.99323,103.04606 35.99323,103.04606 h 36.70825 l 39.90398,-154.72004 25.62745,154.72004 h 36.70824 L 464.18017,204.45956 H 420.9454 L 391.30789,353.19727 369.28135,204.45956 H 329.03972 L 288.2519,352.92517 c 0,0 -6.18204,-34.34183 -20.93812,-72.7988 14.82919,-13.11885 26.25469,-30.86778 33.81838,-52.65514 4.82957,-15.36683 7.24552,-31.1727 7.24552,-47.41763 0,-36.00227 -10.53725,-65.85913 -31.61175,-89.56796 -21.0745,-23.708813 -49.06434,-35.562231 -83.96898,-35.562231 z m 0,42.148344 c 20.19639,0 36.22065,7.682587 48.07506,23.049407 12.07393,15.14731 18.11181,35.45454 18.11181,60.91956 -0.44938,24.70206 -6.69948,42.25764 -13.17223,53.69589 -5.82682,-9.8696 -12.32984,-19.1878 -19.55376,-27.38321 -13.97201,-0.15317 -35.02316,-0.46278 -49.72754,-0.46278 13.93379,13.9737 26.50481,32.22136 37.58216,51.95601 -7.85331,3.02316 -16.06045,5.50366 -21.6452,5.50366 -19.75734,0 -35.6734,-7.57242 -47.74733,-22.71971 -12.07393,-15.36683 -18.10983,-35.67407 -18.10983,-60.91956 0,-25.24549 6.0359,-45.44255 18.10983,-60.58986 12.07393,-15.36682 28.10016,-23.049407 48.07703,-23.049407 z"></path>
    </g>
  </g>
</svg><style>@media (prefers-color-scheme: light) { :root { filter: none; } }
@media (prefers-color-scheme: dark) { :root { filter: invert(100%); } }
</style></svg>