<?xml version="1.0" encoding="UTF-8" standalone="no"?>
<!-- Created with Inkscape (http://www.inkscape.org/) -->

<svg
   width="1112.95"
   height="260"
   viewBox="0 0 1112.95 260"
   version="1.1"
   id="svg1"
   xmlns="http://www.w3.org/2000/svg"
   xmlns:svg="http://www.w3.org/2000/svg">
  <defs
     id="defs1" />
  <g
     id="layer1"
     transform="translate(-52.49542,-58)">
    <g
       id="g5"
       style="clip-rule:evenodd;fill-rule:evenodd;image-rendering:optimizeQuality;shape-rendering:geometricPrecision;text-rendering:geometricPrecision"
       transform="matrix(0.56720349,0,0,0.56720353,52.033609,57.538187)">
      <rect
         style="clip-rule:evenodd;fill:#efefef;fill-opacity:1;fill-rule:evenodd;stroke-width:0.997343;image-rendering:optimizeQuality;shape-rendering:geometricPrecision;text-rendering:geometricPrecision"
         id="rect5"
         width="458.38928"
         height="458.38925"
         x="0.81419051"
         y="0.81419051" />
      <path
         style="clip-rule:evenodd;opacity:1;fill-rule:evenodd;image-rendering:optimizeQuality;shape-rendering:geometricPrecision;text-rendering:geometricPrecision"
         fill="#c8aa50"
         d="m 346.5,344.5 c 25.161,0.998 50.495,1.331 76,1 0,25.667 0,51.333 0,77 -128,0 -256,0 -384,0 0,-25.667 0,-51.333 0,-77 25.5055,0.331 50.8388,-0.002 76,-1 0,-25.333 0,-50.667 0,-76 26,0 52,0 78,0 0,25.667 0,51.333 0,77 25.333,0 50.667,0 76,0 0,-25.667 0,-51.333 0,-77 26,0 52,0 78,0 0,25.333 0,50.667 0,76 z"
         id="path4" />
      <path
         style="clip-rule:evenodd;opacity:1;fill-rule:evenodd;image-rendering:optimizeQuality;shape-rendering:geometricPrecision;text-rendering:geometricPrecision"
         fill="#c8aa50"
         d="m 269.5,116.5 c 0,25.333 0,50.667 0,76 -26,0 -52,0 -78,0 0,-25.333 0,-50.667 0,-76 -50.831,-0.999 -101.8306,-1.332 -153,-1 0,-25.6667 0,-51.3333 0,-77 128,0 256,0 384,0 0,25.6667 0,51.3333 0,77 -51.169,-0.332 -102.169,0.001 -153,1 z"
         id="path3" />
    </g>
    <path
       style="font-weight:900;font-size:96px;font-family:'Noto Sans';-inkscape-font-specification:'Noto Sans Heavy';white-space:pre;fill:#e7e7e7;fill-opacity:1"
       d="m 423.81883,200.02575 c 0,7.168 -1.152,13.472 -3.456,18.912 -2.304,5.44 -6.08,9.6 -11.328,12.48 l 16.704,19.296 h -23.04 l -11.52,-15.36 h -0.672 c -7.68,0 -13.984,-1.472 -18.912,-4.416 -4.928,-2.944 -8.576,-7.072 -10.944,-12.384 -2.304,-5.312 -3.456,-11.52 -3.456,-18.624 0,-7.104 1.184,-13.28 3.552,-18.528 2.368,-5.312 6.016,-9.408 10.944,-12.288 4.928,-2.88 11.232,-4.32 18.912,-4.32 7.808,0 14.144,1.472 19.008,4.416 4.928,2.88 8.512,6.976 10.752,12.288 2.304,5.248 3.456,11.424 3.456,18.528 z m -47.136,0 c 0,6.208 1.056,11.072 3.168,14.592 2.176,3.52 5.728,5.28 10.656,5.28 5.12,0 8.704,-1.76 10.752,-5.28 2.048,-3.52 3.072,-8.384 3.072,-14.592 0,-6.208 -1.024,-11.104 -3.072,-14.688 -2.048,-3.584 -5.6,-5.376 -10.656,-5.376 -5.056,0 -8.64,1.792 -10.752,5.376 -2.112,3.584 -3.168,8.48 -3.168,14.688 z m 110.11208,-18.72 v 53.088 h -13.824 l -2.304,-6.624 h -1.056 c -1.664,2.688 -3.936,4.64 -6.816,5.856 -2.88,1.152 -5.952,1.728 -9.216,1.728 -3.456,0 -6.592,-0.672 -9.408,-2.016 -2.816,-1.344 -5.056,-3.456 -6.72,-6.336 -1.6,-2.88 -2.4,-6.592 -2.4,-11.136 v -34.56 h 18.336 v 28.992 c 0,3.456 0.48,6.08 1.44,7.872 1.024,1.792 2.656,2.688 4.896,2.688 3.456,0 5.76,-1.408 6.912,-4.224 1.216,-2.816 1.824,-6.848 1.824,-12.096 v -23.232 z m 21.98401,-21.408 c 2.624,0 4.896,0.544 6.816,1.632 1.984,1.088 2.976,3.264 2.976,6.528 0,3.136 -0.992,5.28 -2.976,6.432 -1.92,1.088 -4.192,1.632 -6.816,1.632 -2.688,0 -4.992,-0.544 -6.912,-1.632 -1.856,-1.152 -2.784,-3.296 -2.784,-6.432 0,-3.264 0.928,-5.44 2.784,-6.528 1.92,-1.088 4.224,-1.632 6.912,-1.632 z m 9.12,21.408 v 53.088 h -18.336 v -53.088 z m 36.96007,54.048 c -8.064,0 -14.496,-2.176 -19.296,-6.528 -4.8,-4.352 -7.2,-11.264 -7.2,-20.736 0,-6.464 1.216,-11.712 3.648,-15.744 2.432,-4.096 5.728,-7.104 9.888,-9.024 4.224,-1.984 9.024,-2.976 14.4,-2.976 3.264,0 6.336,0.352 9.216,1.056 2.944,0.704 5.664,1.696 8.16,2.976 l -5.376,13.536 c -2.176,-0.96 -4.224,-1.728 -6.144,-2.304 -1.856,-0.576 -3.808,-0.864 -5.856,-0.864 -2.752,0 -4.992,1.088 -6.72,3.264 -1.728,2.176 -2.592,5.504 -2.592,9.984 0,4.608 0.864,7.904 2.592,9.888 1.792,1.92 4.064,2.88 6.816,2.88 2.624,0 5.248,-0.416 7.872,-1.248 2.688,-0.832 5.216,-1.984 7.584,-3.456 v 14.592 c -2.176,1.408 -4.64,2.56 -7.392,3.456 -2.752,0.832 -5.952,1.248 -9.6,1.248 z m 45.98396,-45.216 c 0,4.7656 0.012,9.22716 -0.0855,13.25824 0,0 1.5649,-2.58249 3.67685,-4.99476 2.16466,-2.89987 8.28368,-10.77873 13.30469,-17.09548 h 20.448 l -18.432,22.56 19.584,30.528 h -20.928 l -11.616,-19.008 -5.952,4.512 v 14.496 h -18.432 v -72.96 h 18.432 z m 136.80004,-24.288 -16.896,68.544 h -21.888 l -6.528,-29.856 c -0.128,-0.576 -0.32,-1.536 -0.576,-2.88 -0.256,-1.344 -0.576,-2.88 -0.96,-4.608 -0.32,-1.728 -0.608,-3.424 -0.864,-5.088 -0.256,-1.664 -0.448,-3.072 -0.576,-4.224 -0.128,1.152 -0.352,2.56 -0.672,4.224 -0.256,1.664 -0.544,3.36 -0.864,5.088 -0.32,1.728 -0.64,3.264 -0.96,4.608 -0.256,1.344 -0.448,2.304 -0.576,2.88 l -6.624,29.856 h -21.888 l -16.992,-68.544 h 17.856 l 7.488,34.368 c 0.192,0.832 0.448,2.048 0.768,3.648 0.32,1.536 0.64,3.2 0.96,4.992 0.384,1.792 0.736,3.552 1.056,5.28 0.32,1.664 0.544,3.072 0.672,4.224 0.256,-1.92 0.576,-4.128 0.96,-6.624 0.448,-2.496 0.928,-4.992 1.44,-7.488 0.512,-2.56 0.992,-4.928 1.44,-7.104 0.512,-2.176 0.928,-3.968 1.248,-5.376 l 6.048,-25.92 h 17.184 l 5.856,25.92 c 0.32,1.344 0.704,3.136 1.152,5.376 0.512,2.176 1.024,4.544 1.536,7.104 0.512,2.56 0.992,5.088 1.44,7.584 0.448,2.496 0.768,4.672 0.96,6.528 0.192,-1.6 0.512,-3.584 0.96,-5.952 0.448,-2.368 0.896,-4.672 1.344,-6.912 0.448,-2.304 0.8,-4.032 1.056,-5.184 l 7.584,-34.464 z m 38.87993,14.496 c 1.024,0 2.08,0.064 3.168,0.192 1.088,0.128 1.888,0.256 2.4,0.384 l -1.632,17.28 c -0.64,-0.128 -1.44,-0.256 -2.4,-0.384 -0.896,-0.128 -2.176,-0.192 -3.84,-0.192 -1.536,0 -3.2,0.224 -4.992,0.672 -1.728,0.448 -3.232,1.44 -4.512,2.976 -1.28,1.472 -1.92,3.808 -1.92,7.008 v 26.112 h -18.336 v -53.088 h 13.632 l 2.88,8.448 h 0.864 c 1.472,-2.624 3.52,-4.832 6.144,-6.624 2.688,-1.856 5.536,-2.784 8.544,-2.784 z m 22.27199,-20.448 c 2.624,0 4.896,0.544 6.816,1.632 1.984,1.088 2.976,3.264 2.976,6.528 0,3.136 -0.992,5.28 -2.976,6.432 -1.92,1.088 -4.192,1.632 -6.816,1.632 -2.688,0 -4.992,-0.544 -6.912,-1.632 -1.856,-1.152 -2.784,-3.296 -2.784,-6.432 0,-3.264 0.928,-5.44 2.784,-6.528 1.92,-1.088 4.224,-1.632 6.912,-1.632 z m 9.12,21.408 v 53.088 h -18.336 v -53.088 z m 38.78407,39.552 c 1.664,0 3.168,-0.16 4.512,-0.48 1.408,-0.384 2.848,-0.832 4.32,-1.344 v 13.344 c -1.984,0.832 -4.096,1.536 -6.336,2.112 -2.24,0.576 -5.088,0.864 -8.544,0.864 -3.456,0 -6.496,-0.544 -9.12,-1.632 -2.56,-1.088 -4.576,-2.944 -6.048,-5.568 -1.472,-2.688 -2.208,-6.432 -2.208,-11.232 v -21.888 h -6.432 v -7.488 l 8.16,-5.76 4.704,-11.136 h 12 v 10.656 h 13.056 v 13.728 h -13.056 v 20.64 c 0,3.456 1.664,5.184 4.992,5.184 z m 42.04792,-40.512 c 7.744,0 13.856,2.016 18.336,6.048 4.48,4.032 6.72,10.112 6.72,18.24 v 8.16 h -32.736 c 0.128,2.752 1.152,5.024 3.072,6.816 1.984,1.792 4.832,2.688 8.544,2.688 3.328,0 6.368,-0.32 9.12,-0.96 2.752,-0.64 5.6,-1.664 8.544,-3.072 v 13.152 c -2.56,1.344 -5.376,2.336 -8.448,2.976 -3.008,0.64 -6.816,0.96 -11.424,0.96 -5.376,0 -10.176,-0.928 -14.4,-2.784 -4.16,-1.92 -7.456,-4.896 -9.888,-8.928 -2.432,-4.032 -3.648,-9.184 -3.648,-15.456 0,-6.4 1.088,-11.648 3.264,-15.744 2.24,-4.096 5.312,-7.136 9.216,-9.12 3.968,-1.984 8.544,-2.976 13.728,-2.976 z m 0.672,12.48 c -2.176,0 -4,0.672 -5.472,2.016 -1.408,1.344 -2.24,3.488 -2.496,6.432 h 15.744 c -0.064,-2.368 -0.768,-4.352 -2.112,-5.952 -1.28,-1.664 -3.168,-2.496 -5.664,-2.496 z"
       id="text1"
       transform="matrix(1.4262655,0,0,1.4262655,-137.88027,-104.82051)"
       aria-label="QuickWrite" />
  </g>
</svg>
